# xmcd
#
# Track frame offsets:
#	150
#	12021
#	23704
#	38378
#	47266
#	58884
#	69276
#	81544
#	93384
#	106471
#	115764
#	128616
#	137702
#	149354
#	159592
#	171967
#	183051
#	195218
#	206002
#	215502
#	227435
#	238703
#	249700
#	259756
#	271227
#	281082
#	291231
#	300981
#	311577
#	323427
#	335394
#	347024
#
# Disc length: 4778 seconds
#
# Revision: 2
# Processed by: cddbd v1.5.2PL0 Copyright (c) Steve Scherf et al.
# Submitted via: EZCDAudioConverter 7.0.5.1
#
DISCID=bb12a820
DTITLE=Wanda Jackson - Tears Will Be The Chaser For Your Wine [CD3]
DYEAR=1997
DGENRE=Country
TTITLE0=Try Me One More Time
TTITLE1=Let's Say Goodbye Like We Said Hello
TTITLE2=The Soldier's Last Letter
TTITLE3=Jambalaya
TTITLE4=Jealous Heart
TTITLE5=There's A New Moon Over My Shoulder
TTITLE6=You Win Again
TTITLE7=Wabash Cannonball
TTITLE8=The Great Speckled Bird
TTITLE9=Fire Ball Mail
TTITLE10=Blue Yodel #6
TTITLE11=Tuck Away My Lonesome Blues
TTITLE12=My Days Are Darker Than Your Nights
TTITLE13=I'd Like To Help You Out
TTITLE14=Two Wrongs Don't Make A Right
TTITLE15=Memory Maker
TTITLE16=Who Do You Go To
TTITLE17=My Baby Walked Right Out On Me
TTITLE18=The Half That's Mine
TTITLE19=A Girl Don't Have To Drink To Have Fun
TTITLE20=I'd Do It All Over Again
TTITLE21=No Place To Go But Home
TTITLE22=You Created Me
TTITLE23=I Wish I Was Your Friend
TTITLE24=Your Tender Love
TTITLE25=By The Time You Get To Phoenix
TTITLE26=Wishing Well
TTITLE27=My Baby Walked Right Out On Me
TTITLE28=The Dirt Behind My Tears
TTITLE29=Little Boy Soldiers
TTITLE30=Poor Ole Me
TTITLE31=As The Day Wears On
EXTD=
EXTT0=
EXTT1=
EXTT2=
EXTT3=
EXTT4=
EXTT5=
EXTT6=
EXTT7=
EXTT8=
EXTT9=
EXTT10=
EXTT11=
EXTT12=
EXTT13=
EXTT14=
EXTT15=
EXTT16=
EXTT17=
EXTT18=
EXTT19=
EXTT20=
EXTT21=
EXTT22=
EXTT23=
EXTT24=
EXTT25=
EXTT26=
EXTT27=
EXTT28=
EXTT29=
EXTT30=
EXTT31=
PLAYORDER=
